<svg version="1.1" id="Layer_1" xmlns="http://www.w3.org/2000/svg" xmlns:xlink="http://www.w3.org/1999/xlink" x="0px" y="0px"
	 width="100%" viewBox="0 0 603 401" enable-background="new 0 0 603 401" xml:space="preserve">
<path fill="#000000" opacity="1.000000" stroke="none" 
	d="
M1.000000,401.000000 
	C1.000000,267.723389 1.000000,134.446808 1.000000,1.000000 
	C200.691544,1.000000 400.383118,1.000000 600.537354,1.468657 
	C601.000000,132.549744 601.000061,263.162170 600.999817,393.774597 
	C600.999756,400.998413 600.998352,400.999786 593.754028,400.999786 
	C396.169342,401.000031 198.584671,401.000000 1.000000,401.000000 
M585.402283,176.499786 
	C585.402283,197.074188 585.402283,217.648590 585.402283,238.254944 
	C589.387695,238.254944 592.920654,238.254944 596.377319,238.254944 
	C596.377319,207.867859 596.377319,177.824081 596.377319,147.745331 
	C592.613708,147.745331 589.080750,147.745331 585.402283,147.745331 
	C585.402283,157.224777 585.402283,166.362274 585.402283,176.499786 
M5.402256,192.499786 
	C5.402256,208.748306 5.402256,224.996826 5.402256,241.244385 
	C9.408394,241.244385 12.941396,241.244385 16.367405,241.244385 
	C16.367405,210.846619 16.367405,180.802719 16.367405,150.755875 
	C12.592164,150.755875 9.059258,150.755875 5.402291,150.755875 
	C5.402291,164.572479 5.402291,178.036118 5.402256,192.499786 
M150.089752,26.357302 
	C150.089752,28.114586 150.089752,29.871872 150.089752,31.671803 
	C164.314590,31.671803 177.872314,31.671803 191.570953,31.671803 
	C191.570953,24.406685 191.570953,17.384535 191.570953,10.333280 
	C177.672241,10.333280 164.114273,10.333280 150.089783,10.333280 
	C150.089783,15.506496 150.089783,20.449883 150.089752,26.357302 
M450.092773,12.783403 
	C450.092773,19.039778 450.092773,25.296152 450.092773,31.531227 
	C464.359894,31.531227 478.037964,31.531227 491.605164,31.531227 
	C491.605164,24.240648 491.605164,17.332836 491.605164,10.098636 
	C478.366882,10.098636 465.430481,10.067738 452.495148,10.173328 
	C451.696289,10.179850 450.906219,11.261691 450.092773,12.783403 
M553.963135,181.811737 
	C551.682129,176.675507 548.412903,174.770020 544.469727,176.473236 
	C540.979126,177.980942 539.317871,180.800583 540.166382,184.517868 
	C540.944397,187.925888 543.329407,190.086517 546.965332,189.962326 
	C551.529419,189.806427 553.825073,187.132416 553.963135,181.811737 
z"/>
<path fill="#1C1C1C" opacity="1.000000" stroke="none" 
	d="
M1.000000,401.500000 
	C198.584671,401.000000 396.169342,401.000031 593.754028,400.999786 
	C600.998352,400.999786 600.999756,400.998413 600.999817,393.774597 
	C601.000061,263.162170 601.000000,132.549744 601.000000,1.468657 
	C602.654358,1.048077 604.839600,0.370774 604.037109,3.509482 
	C603.797058,4.448111 604.000000,5.500000 604.000000,6.500000 
	C604.000000,138.333328 604.000000,270.166656 604.000000,402.000000 
	C403.000000,402.000000 202.000000,402.000000 1.000000,401.500000 
z"/>
<path fill="#E8E8E8" opacity="1.000000" stroke="none" 
	d="
M585.402283,175.999786 
	C585.402283,166.362274 585.402283,157.224777 585.402283,147.745331 
	C589.080750,147.745331 592.613708,147.745331 596.377319,147.745331 
	C596.377319,177.824081 596.377319,207.867859 596.377319,238.254944 
	C592.920654,238.254944 589.387695,238.254944 585.402283,238.254944 
	C585.402283,217.648590 585.402283,197.074188 585.402283,175.999786 
z"/>
<path fill="#E8E8E8" opacity="1.000000" stroke="none" 
	d="
M5.402273,191.999786 
	C5.402291,178.036118 5.402291,164.572479 5.402291,150.755875 
	C9.059258,150.755875 12.592164,150.755875 16.367405,150.755875 
	C16.367405,180.802719 16.367405,210.846619 16.367405,241.244385 
	C12.941396,241.244385 9.408394,241.244385 5.402256,241.244385 
	C5.402256,224.996826 5.402256,208.748306 5.402273,191.999786 
z"/>
<path fill="#A180A1" opacity="1.000000" stroke="none" 
	d="
M150.089767,25.875286 
	C150.089783,20.449883 150.089783,15.506496 150.089783,10.333280 
	C164.114273,10.333280 177.672241,10.333280 191.570953,10.333280 
	C191.570953,17.384535 191.570953,24.406685 191.570953,31.671803 
	C177.872314,31.671803 164.314590,31.671803 150.089752,31.671803 
	C150.089752,29.871872 150.089752,28.114586 150.089767,25.875286 
M182.420212,29.978483 
	C184.835922,29.978483 187.251633,29.978483 189.600006,29.978483 
	C189.600006,23.560040 189.600006,17.986822 189.600006,12.356615 
	C176.982376,12.356615 164.747162,12.356615 152.315948,12.356615 
	C152.315948,18.264074 152.315948,23.834568 152.315948,29.978447 
	C162.213776,29.978447 171.828156,29.978447 182.420212,29.978483 
z"/>
<path fill="#A180A1" opacity="1.000000" stroke="none" 
	d="
M450.102417,12.313313 
	C450.906219,11.261691 451.696289,10.179850 452.495148,10.173328 
	C465.430481,10.067738 478.366882,10.098636 491.605164,10.098636 
	C491.605164,17.332836 491.605164,24.240648 491.605164,31.531227 
	C478.037964,31.531227 464.359894,31.531227 450.092773,31.531227 
	C450.092773,25.296152 450.092773,19.039778 450.102417,12.313313 
M462.528625,29.978825 
	C471.602051,29.978825 480.675476,29.978825 489.566223,29.978825 
	C489.566223,23.488642 489.566223,17.914997 489.566223,12.389318 
	C476.913879,12.389318 464.678467,12.389318 452.348236,12.389318 
	C452.348236,18.331923 452.348236,23.902039 452.348236,29.978886 
	C455.626007,29.978886 458.584198,29.978886 462.528625,29.978825 
z"/>
<path fill="#F6F6F6" opacity="1.000000" stroke="none" 
	d="
M553.988098,182.209930 
	C553.825073,187.132416 551.529419,189.806427 546.965332,189.962326 
	C543.329407,190.086517 540.944397,187.925888 540.166382,184.517868 
	C539.317871,180.800583 540.979126,177.980942 544.469727,176.473236 
	C548.412903,174.770020 551.682129,176.675507 553.988098,182.209930 
z"/>
<path fill="#8C028C" opacity="1.000000" stroke="none" 
	d="
M181.931366,29.978466 
	C171.828156,29.978447 162.213776,29.978447 152.315948,29.978447 
	C152.315948,23.834568 152.315948,18.264074 152.315948,12.356615 
	C164.747162,12.356615 176.982376,12.356615 189.600006,12.356615 
	C189.600006,17.986822 189.600006,23.560040 189.600006,29.978483 
	C187.251633,29.978483 184.835922,29.978483 181.931366,29.978466 
M167.152924,16.672729 
	C166.958511,19.272436 166.263046,21.959080 166.695282,24.450060 
	C167.247742,27.634077 170.805618,28.903072 173.298019,27.313326 
	C175.651031,25.812485 176.611694,20.152985 174.855804,17.178549 
	C172.980560,14.001911 170.396576,14.282172 167.152924,16.672729 
z"/>
<path fill="#8C028C" opacity="1.000000" stroke="none" 
	d="
M462.035492,29.978855 
	C458.584198,29.978886 455.626007,29.978886 452.348236,29.978886 
	C452.348236,23.902039 452.348236,18.331923 452.348236,12.389318 
	C464.678467,12.389318 476.913879,12.389318 489.566223,12.389318 
	C489.566223,17.914997 489.566223,23.488642 489.566223,29.978825 
	C480.675476,29.978825 471.602051,29.978825 462.035492,29.978855 
M475.186371,21.759211 
	C475.135620,20.638021 475.380035,19.387800 474.960419,18.427841 
	C474.418060,17.187099 473.489166,15.440127 472.467468,15.240923 
	C470.898743,14.935085 469.010315,15.551972 467.488220,16.267742 
	C467.141663,16.430717 467.795410,18.594816 467.882690,19.845272 
	C467.956390,20.901344 468.276154,22.639574 467.800568,22.922625 
	C464.378998,24.959068 467.062256,26.328238 468.382599,27.251637 
	C471.663300,29.546080 474.824066,27.340174 475.186371,21.759211 
z"/>
<path fill="#E8E8E8" opacity="1.000000" stroke="none" 
	d="
M167.404541,16.354710 
	C170.396576,14.282172 172.980560,14.001911 174.855804,17.178549 
	C176.611694,20.152985 175.651031,25.812485 173.298019,27.313326 
	C170.805618,28.903072 167.247742,27.634077 166.695282,24.450060 
	C166.263046,21.959080 166.958511,19.272436 167.404541,16.354710 
z"/>
<path fill="#E8E8E8" opacity="1.000000" stroke="none" 
	d="
M475.324280,22.134346 
	C474.824066,27.340174 471.663300,29.546080 468.382599,27.251637 
	C467.062256,26.328238 464.378998,24.959068 467.800568,22.922625 
	C468.276154,22.639574 467.956390,20.901344 467.882690,19.845272 
	C467.795410,18.594816 467.141663,16.430717 467.488220,16.267742 
	C469.010315,15.551972 470.898743,14.935085 472.467468,15.240923 
	C473.489166,15.440127 474.418060,17.187099 474.960419,18.427841 
	C475.380035,19.387800 475.135620,20.638021 475.324280,22.134346 
z"/>
</svg>